<mxfile host="app.diagrams.net" agent="Mozilla/5.0 (Windows NT 10.0; Win64; x64) AppleWebKit/537.36 (KHTML, like Gecko) Chrome/140.0.0.0 Safari/537.36" version="28.2.3">
  <diagram name="PÃ¡gina-1" id="K43sTbLDJ41rAkB6k8sT">
    <mxGraphModel dx="1105" dy="473" grid="1" gridSize="10" guides="1" tooltips="1" connect="1" arrows="1" fold="1" page="1" pageScale="1" pageWidth="827" pageHeight="1169" math="0" shadow="0">
      <root>
        <mxCell id="0" />
        <mxCell id="1" parent="0" />
        <mxCell id="wsB6wUBeOOBHAGdhXqc1-14" style="edgeStyle=none;shape=connector;rounded=0;orthogonalLoop=1;jettySize=auto;html=1;exitX=1;exitY=0.5;exitDx=0;exitDy=0;strokeColor=default;align=center;verticalAlign=middle;fontFamily=Helvetica;fontSize=11;fontColor=default;labelBackgroundColor=default;endArrow=none;" edge="1" parent="1" source="wsB6wUBeOOBHAGdhXqc1-21" target="wsB6wUBeOOBHAGdhXqc1-12">
          <mxGeometry relative="1" as="geometry" />
        </mxCell>
        <mxCell id="wsB6wUBeOOBHAGdhXqc1-1" value="Curso" style="whiteSpace=wrap;html=1;align=center;" vertex="1" parent="1">
          <mxGeometry x="90" y="110" width="80" height="30" as="geometry" />
        </mxCell>
        <mxCell id="wsB6wUBeOOBHAGdhXqc1-5" style="edgeStyle=none;shape=connector;rounded=0;orthogonalLoop=1;jettySize=auto;html=1;exitX=0.5;exitY=1;exitDx=0;exitDy=0;entryX=0.5;entryY=0;entryDx=0;entryDy=0;strokeColor=default;align=center;verticalAlign=middle;fontFamily=Helvetica;fontSize=11;fontColor=default;labelBackgroundColor=default;endArrow=none;" edge="1" parent="1" source="wsB6wUBeOOBHAGdhXqc1-2" target="wsB6wUBeOOBHAGdhXqc1-1">
          <mxGeometry relative="1" as="geometry" />
        </mxCell>
        <mxCell id="wsB6wUBeOOBHAGdhXqc1-2" value="codCurso" style="ellipse;whiteSpace=wrap;html=1;align=center;fontStyle=4;" vertex="1" parent="1">
          <mxGeometry x="20" y="40" width="70" height="30" as="geometry" />
        </mxCell>
        <mxCell id="wsB6wUBeOOBHAGdhXqc1-7" style="edgeStyle=none;shape=connector;rounded=0;orthogonalLoop=1;jettySize=auto;html=1;exitX=0.5;exitY=1;exitDx=0;exitDy=0;entryX=0.5;entryY=0;entryDx=0;entryDy=0;strokeColor=default;align=center;verticalAlign=middle;fontFamily=Helvetica;fontSize=11;fontColor=default;labelBackgroundColor=default;endArrow=none;" edge="1" parent="1" source="wsB6wUBeOOBHAGdhXqc1-6" target="wsB6wUBeOOBHAGdhXqc1-1">
          <mxGeometry relative="1" as="geometry" />
        </mxCell>
        <mxCell id="wsB6wUBeOOBHAGdhXqc1-6" value="nombre" style="ellipse;whiteSpace=wrap;html=1;align=center;fontFamily=Helvetica;fontSize=11;fontColor=default;labelBackgroundColor=default;" vertex="1" parent="1">
          <mxGeometry x="100" y="30" width="70" height="30" as="geometry" />
        </mxCell>
        <mxCell id="wsB6wUBeOOBHAGdhXqc1-9" style="edgeStyle=none;shape=connector;rounded=0;orthogonalLoop=1;jettySize=auto;html=1;exitX=0.5;exitY=1;exitDx=0;exitDy=0;strokeColor=default;align=center;verticalAlign=middle;fontFamily=Helvetica;fontSize=11;fontColor=default;labelBackgroundColor=default;endArrow=none;" edge="1" parent="1" source="wsB6wUBeOOBHAGdhXqc1-8">
          <mxGeometry relative="1" as="geometry">
            <mxPoint x="130" y="110" as="targetPoint" />
          </mxGeometry>
        </mxCell>
        <mxCell id="wsB6wUBeOOBHAGdhXqc1-8" value="valorCuota" style="ellipse;whiteSpace=wrap;html=1;align=center;fontFamily=Helvetica;fontSize=11;fontColor=default;labelBackgroundColor=default;" vertex="1" parent="1">
          <mxGeometry x="180" y="30" width="70" height="30" as="geometry" />
        </mxCell>
        <mxCell id="wsB6wUBeOOBHAGdhXqc1-11" style="edgeStyle=none;shape=connector;rounded=0;orthogonalLoop=1;jettySize=auto;html=1;exitX=0.5;exitY=1;exitDx=0;exitDy=0;entryX=0;entryY=0.5;entryDx=0;entryDy=0;strokeColor=default;align=center;verticalAlign=middle;fontFamily=Helvetica;fontSize=11;fontColor=default;labelBackgroundColor=default;endArrow=none;" edge="1" parent="1" source="wsB6wUBeOOBHAGdhXqc1-10" target="wsB6wUBeOOBHAGdhXqc1-1">
          <mxGeometry relative="1" as="geometry" />
        </mxCell>
        <mxCell id="wsB6wUBeOOBHAGdhXqc1-10" value="duracion" style="ellipse;whiteSpace=wrap;html=1;align=center;fontFamily=Helvetica;fontSize=11;fontColor=default;labelBackgroundColor=default;" vertex="1" parent="1">
          <mxGeometry x="10" y="90" width="70" height="30" as="geometry" />
        </mxCell>
        <mxCell id="wsB6wUBeOOBHAGdhXqc1-31" style="edgeStyle=none;shape=connector;rounded=0;orthogonalLoop=1;jettySize=auto;html=1;exitX=0.5;exitY=0;exitDx=0;exitDy=0;entryX=0.5;entryY=1;entryDx=0;entryDy=0;strokeColor=default;align=center;verticalAlign=middle;fontFamily=Helvetica;fontSize=11;fontColor=default;labelBackgroundColor=default;endArrow=none;" edge="1" parent="1" source="wsB6wUBeOOBHAGdhXqc1-12" target="wsB6wUBeOOBHAGdhXqc1-24">
          <mxGeometry relative="1" as="geometry" />
        </mxCell>
        <mxCell id="wsB6wUBeOOBHAGdhXqc1-12" value="Instructor" style="whiteSpace=wrap;html=1;align=center;" vertex="1" parent="1">
          <mxGeometry x="310" y="110" width="80" height="30" as="geometry" />
        </mxCell>
        <mxCell id="wsB6wUBeOOBHAGdhXqc1-19" value="1" style="text;strokeColor=none;fillColor=none;spacingLeft=4;spacingRight=4;overflow=hidden;rotatable=0;points=[[0,0.5],[1,0.5]];portConstraint=eastwest;fontSize=11;whiteSpace=wrap;html=1;fontFamily=Helvetica;fontColor=default;labelBackgroundColor=default;" vertex="1" parent="1">
          <mxGeometry x="290" y="100" width="40" height="30" as="geometry" />
        </mxCell>
        <mxCell id="wsB6wUBeOOBHAGdhXqc1-20" value="N" style="text;strokeColor=none;fillColor=none;spacingLeft=4;spacingRight=4;overflow=hidden;rotatable=0;points=[[0,0.5],[1,0.5]];portConstraint=eastwest;fontSize=11;whiteSpace=wrap;html=1;fontFamily=Helvetica;fontColor=default;labelBackgroundColor=default;" vertex="1" parent="1">
          <mxGeometry x="170" y="100" width="40" height="30" as="geometry" />
        </mxCell>
        <mxCell id="wsB6wUBeOOBHAGdhXqc1-22" value="" style="edgeStyle=none;shape=connector;rounded=0;orthogonalLoop=1;jettySize=auto;html=1;exitX=1;exitY=0.5;exitDx=0;exitDy=0;strokeColor=default;align=center;verticalAlign=middle;fontFamily=Helvetica;fontSize=11;fontColor=default;labelBackgroundColor=default;endArrow=none;" edge="1" parent="1" source="wsB6wUBeOOBHAGdhXqc1-1" target="wsB6wUBeOOBHAGdhXqc1-21">
          <mxGeometry relative="1" as="geometry">
            <mxPoint x="170" y="125" as="sourcePoint" />
            <mxPoint x="310" y="125" as="targetPoint" />
          </mxGeometry>
        </mxCell>
        <mxCell id="wsB6wUBeOOBHAGdhXqc1-21" value="dicta" style="shape=rhombus;perimeter=rhombusPerimeter;whiteSpace=wrap;html=1;align=center;fontFamily=Helvetica;fontSize=11;fontColor=default;labelBackgroundColor=default;" vertex="1" parent="1">
          <mxGeometry x="210" y="105" width="60" height="40" as="geometry" />
        </mxCell>
        <mxCell id="wsB6wUBeOOBHAGdhXqc1-34" style="edgeStyle=none;shape=connector;rounded=0;orthogonalLoop=1;jettySize=auto;html=1;entryX=0.5;entryY=0;entryDx=0;entryDy=0;strokeColor=default;align=center;verticalAlign=middle;fontFamily=Helvetica;fontSize=11;fontColor=default;labelBackgroundColor=default;endArrow=none;" edge="1" parent="1" source="wsB6wUBeOOBHAGdhXqc1-23" target="wsB6wUBeOOBHAGdhXqc1-12">
          <mxGeometry relative="1" as="geometry" />
        </mxCell>
        <mxCell id="wsB6wUBeOOBHAGdhXqc1-23" value="nombre" style="ellipse;whiteSpace=wrap;html=1;align=center;fontFamily=Helvetica;fontSize=11;fontColor=default;labelBackgroundColor=default;" vertex="1" parent="1">
          <mxGeometry x="320" y="40" width="70" height="30" as="geometry" />
        </mxCell>
        <mxCell id="wsB6wUBeOOBHAGdhXqc1-24" value="correo" style="ellipse;whiteSpace=wrap;html=1;align=center;fontFamily=Helvetica;fontSize=11;fontColor=default;labelBackgroundColor=default;" vertex="1" parent="1">
          <mxGeometry x="400" y="40" width="50" height="30" as="geometry" />
        </mxCell>
        <mxCell id="wsB6wUBeOOBHAGdhXqc1-37" style="edgeStyle=none;shape=connector;rounded=0;orthogonalLoop=1;jettySize=auto;html=1;exitX=0.5;exitY=0;exitDx=0;exitDy=0;entryX=0.5;entryY=1;entryDx=0;entryDy=0;strokeColor=default;align=center;verticalAlign=middle;fontFamily=Helvetica;fontSize=11;fontColor=default;labelBackgroundColor=default;endArrow=none;" edge="1" parent="1" source="wsB6wUBeOOBHAGdhXqc1-38" target="wsB6wUBeOOBHAGdhXqc1-1">
          <mxGeometry relative="1" as="geometry" />
        </mxCell>
        <mxCell id="wsB6wUBeOOBHAGdhXqc1-35" value="Alumno" style="whiteSpace=wrap;html=1;align=center;" vertex="1" parent="1">
          <mxGeometry x="90" y="230" width="80" height="30" as="geometry" />
        </mxCell>
        <mxCell id="wsB6wUBeOOBHAGdhXqc1-39" value="" style="edgeStyle=none;shape=connector;rounded=0;orthogonalLoop=1;jettySize=auto;html=1;exitX=0.5;exitY=0;exitDx=0;exitDy=0;entryX=0.5;entryY=1;entryDx=0;entryDy=0;strokeColor=default;align=center;verticalAlign=middle;fontFamily=Helvetica;fontSize=11;fontColor=default;labelBackgroundColor=default;endArrow=none;" edge="1" parent="1" source="wsB6wUBeOOBHAGdhXqc1-35" target="wsB6wUBeOOBHAGdhXqc1-38">
          <mxGeometry relative="1" as="geometry">
            <mxPoint x="130" y="220" as="sourcePoint" />
            <mxPoint x="130" y="140" as="targetPoint" />
          </mxGeometry>
        </mxCell>
        <mxCell id="wsB6wUBeOOBHAGdhXqc1-38" value="cursar" style="shape=rhombus;perimeter=rhombusPerimeter;whiteSpace=wrap;html=1;align=center;fontFamily=Helvetica;fontSize=11;fontColor=default;labelBackgroundColor=default;" vertex="1" parent="1">
          <mxGeometry x="100" y="170" width="60" height="40" as="geometry" />
        </mxCell>
        <mxCell id="wsB6wUBeOOBHAGdhXqc1-40" value="N" style="text;strokeColor=none;fillColor=none;spacingLeft=4;spacingRight=4;overflow=hidden;rotatable=0;points=[[0,0.5],[1,0.5]];portConstraint=eastwest;fontSize=11;whiteSpace=wrap;html=1;fontFamily=Helvetica;fontColor=default;labelBackgroundColor=default;" vertex="1" parent="1">
          <mxGeometry x="110" y="140" width="40" height="30" as="geometry" />
        </mxCell>
        <mxCell id="wsB6wUBeOOBHAGdhXqc1-44" value="N" style="text;strokeColor=none;fillColor=none;spacingLeft=4;spacingRight=4;overflow=hidden;rotatable=0;points=[[0,0.5],[1,0.5]];portConstraint=eastwest;fontSize=11;whiteSpace=wrap;html=1;fontFamily=Helvetica;fontColor=default;labelBackgroundColor=default;" vertex="1" parent="1">
          <mxGeometry x="130" y="210" width="40" height="30" as="geometry" />
        </mxCell>
        <mxCell id="wsB6wUBeOOBHAGdhXqc1-46" style="edgeStyle=none;shape=connector;rounded=0;orthogonalLoop=1;jettySize=auto;html=1;exitX=0.5;exitY=0;exitDx=0;exitDy=0;entryX=0.5;entryY=1;entryDx=0;entryDy=0;strokeColor=default;align=center;verticalAlign=middle;fontFamily=Helvetica;fontSize=11;fontColor=default;labelBackgroundColor=default;endArrow=none;" edge="1" parent="1" source="wsB6wUBeOOBHAGdhXqc1-45" target="wsB6wUBeOOBHAGdhXqc1-35">
          <mxGeometry relative="1" as="geometry" />
        </mxCell>
        <mxCell id="wsB6wUBeOOBHAGdhXqc1-45" value="nombre" style="ellipse;whiteSpace=wrap;html=1;align=center;fontFamily=Helvetica;fontSize=11;fontColor=default;labelBackgroundColor=default;" vertex="1" parent="1">
          <mxGeometry x="80" y="300" width="70" height="30" as="geometry" />
        </mxCell>
        <mxCell id="wsB6wUBeOOBHAGdhXqc1-48" style="edgeStyle=none;shape=connector;rounded=0;orthogonalLoop=1;jettySize=auto;html=1;exitX=0;exitY=1;exitDx=0;exitDy=0;entryX=1;entryY=0.5;entryDx=0;entryDy=0;strokeColor=default;align=center;verticalAlign=middle;fontFamily=Helvetica;fontSize=11;fontColor=default;labelBackgroundColor=default;endArrow=none;" edge="1" parent="1" target="wsB6wUBeOOBHAGdhXqc1-12">
          <mxGeometry relative="1" as="geometry">
            <mxPoint x="440.25126265847075" y="125.60660171779807" as="sourcePoint" />
          </mxGeometry>
        </mxCell>
        <mxCell id="wsB6wUBeOOBHAGdhXqc1-50" style="edgeStyle=none;shape=connector;rounded=0;orthogonalLoop=1;jettySize=auto;html=1;exitX=0.243;exitY=0.2;exitDx=0;exitDy=0;entryX=0.5;entryY=1;entryDx=0;entryDy=0;strokeColor=default;align=center;verticalAlign=middle;fontFamily=Helvetica;fontSize=11;fontColor=default;labelBackgroundColor=default;endArrow=none;exitPerimeter=0;" edge="1" parent="1" target="wsB6wUBeOOBHAGdhXqc1-35">
          <mxGeometry relative="1" as="geometry">
            <mxPoint x="187.01" y="306" as="sourcePoint" />
          </mxGeometry>
        </mxCell>
        <mxCell id="wsB6wUBeOOBHAGdhXqc1-52" style="edgeStyle=none;shape=connector;rounded=0;orthogonalLoop=1;jettySize=auto;html=1;exitX=1;exitY=0;exitDx=0;exitDy=0;strokeColor=default;align=center;verticalAlign=middle;fontFamily=Helvetica;fontSize=11;fontColor=default;labelBackgroundColor=default;endArrow=none;" edge="1" parent="1" source="wsB6wUBeOOBHAGdhXqc1-51">
          <mxGeometry relative="1" as="geometry">
            <mxPoint x="130" y="260" as="targetPoint" />
          </mxGeometry>
        </mxCell>
        <mxCell id="wsB6wUBeOOBHAGdhXqc1-51" value="telefono" style="ellipse;shape=doubleEllipse;margin=3;whiteSpace=wrap;html=1;align=center;fontFamily=Helvetica;fontSize=11;fontColor=default;labelBackgroundColor=default;" vertex="1" parent="1">
          <mxGeometry x="15" y="290" width="60" height="30" as="geometry" />
        </mxCell>
        <mxCell id="wsB6wUBeOOBHAGdhXqc1-53" value="codAlumno" style="ellipse;whiteSpace=wrap;html=1;align=center;fontStyle=4;" vertex="1" parent="1">
          <mxGeometry x="180" y="300" width="80" height="30" as="geometry" />
        </mxCell>
        <mxCell id="wsB6wUBeOOBHAGdhXqc1-55" value="codInstructor" style="ellipse;whiteSpace=wrap;html=1;align=center;fontStyle=4;" vertex="1" parent="1">
          <mxGeometry x="440" y="110" width="80" height="30" as="geometry" />
        </mxCell>
      </root>
    </mxGraphModel>
  </diagram>
</mxfile>
